<svg xmlns="http://www.w3.org/2000/svg" width="1751" height="614" id="graph-svg" style="background: white; font-family: Arial; font-size: 20px;"><g id="graph-g" transform="translate(57.53236868543917,167.05491216211345) scale(0.9820906458344763)"><svg id="token-0" width="72.26403999328613" height="70" y="100" style="overflow: visible; cursor: pointer;" x="141.2702232360839"><line x1="36.132019996643066" y1="30" x2="36.132019996643066" y2="40" class="pos-edge" style="stroke: rgb(72, 72, 72); stroke-width: 3;"/><svg x="51.125484466552734" width="21.1385555267334" height="30" style="overflow: visible;"><path d="M0,0h16.1385555267334a5,5 0 0 1 5,5v20a5,5 0 0 1 -5,5h-16.1385555267334z" class="tokenNum root" style="fill: rgb(175, 162, 255); stroke: rgb(0, 0, 0); stroke-width: 4px;"/><text class="tokenNum-label root" x="50%" y="50%" text-anchor="middle" dominant-baseline="central" style="font-weight: 700;">1</text></svg><svg width="51.125484466552734" height="30" id="group-0" class="token" subId="0" style="overflow: visible;"><path d="M51.125484466552734,0h-46.125484466552734a5,5 1 0 0 -5,5v20a5,5 1 0 0 5,5h46.125484466552734z" id="form-0" attr="form" subId="0" class="form root" num="1" style="fill: rgb(127, 161, 255); stroke: rgb(0, 0, 0); stroke-width: 4px;"/><text x="50%" y="50%" text-anchor="middle" dominant-baseline="central" id="text-form-0" class="form-label root" style="font-weight: 700;">cute</text></svg><svg x="12.23521900177002" y="40" width="47.793601989746094" height="30" style="overflow: visible;"><rect width="47.793601989746094" height="30" id="pos-0" class="pos" attr="upostag" subId="0" rx="5" ry="5" style="fill: rgb(175, 162, 255); stroke: rgb(0, 0, 0); stroke-width: 2px;"/><text x="50%" y="50%" class="pos-label" id="text-pos-0" text-anchor="middle" dominant-baseline="central">ADJ</text></svg></svg><svg id="token-1" width="41.1385555267334" height="70" y="100" style="overflow: visible; cursor: pointer;" x="262.2702232360839"><line x1="20.5692777633667" y1="30" x2="20.5692777633667" y2="40" class="pos-edge" style="stroke: rgb(72, 72, 72); stroke-width: 3;"/><svg x="20" width="21.1385555267334" height="30" style="overflow: visible;"><path d="M0,0h16.1385555267334a5,5 0 0 1 5,5v20a5,5 0 0 1 -5,5h-16.1385555267334z" class="tokenNum" style="fill: rgb(175, 162, 255); stroke: rgb(0, 0, 0); stroke-width: 2px;"/><text class="tokenNum-label" x="50%" y="50%" text-anchor="middle" dominant-baseline="central">2</text></svg><svg width="20" height="30" id="group-1" class="token" subId="1" style="overflow: visible;"><path d="M20,0h-15a5,5 1 0 0 -5,5v20a5,5 1 0 0 5,5h15z" id="form-1" attr="form" subId="1" class="form" num="2" style="fill: rgb(127, 161, 255); stroke: rgb(0, 0, 0); stroke-width: 2px;"/><text x="50%" y="50%" text-anchor="middle" dominant-baseline="central" id="text-form-1" class="form-label">,</text></svg><svg x="-18.87307071685791" y="40" width="78.88469696044922" height="30" style="overflow: visible;"><rect width="78.88469696044922" height="30" id="pos-1" class="pos" attr="upostag" subId="1" rx="5" ry="5" style="fill: rgb(175, 162, 255); stroke: rgb(0, 0, 0); stroke-width: 2px;"/><text x="50%" y="50%" class="pos-label" id="text-pos-1" text-anchor="middle" dominant-baseline="central">PUNCT</text></svg></svg><svg id="token-2" width="73.01952171325684" height="70" y="100" style="overflow: visible; cursor: pointer;" x="396.2702232360839"><line x1="36.50976085662842" y1="30" x2="36.50976085662842" y2="40" class="pos-edge" style="stroke: rgb(72, 72, 72); stroke-width: 3;"/><svg x="51.88096618652344" width="21.1385555267334" height="30" style="overflow: visible;"><path d="M0,0h16.1385555267334a5,5 0 0 1 5,5v20a5,5 0 0 1 -5,5h-16.1385555267334z" class="tokenNum" style="fill: rgb(175, 162, 255); stroke: rgb(0, 0, 0); stroke-width: 2px;"/><text class="tokenNum-label" x="50%" y="50%" text-anchor="middle" dominant-baseline="central">3</text></svg><svg width="51.88096618652344" height="30" id="group-2" class="token" subId="2" style="overflow: visible;"><path d="M51.88096618652344,0h-46.88096618652344a5,5 1 0 0 -5,5v20a5,5 1 0 0 5,5h46.88096618652344z" id="form-2" attr="form" subId="2" class="form" num="3" style="fill: rgb(127, 161, 255); stroke: rgb(0, 0, 0); stroke-width: 2px;"/><text x="50%" y="50%" text-anchor="middle" dominant-baseline="central" id="text-form-2" class="form-label">fluffy</text></svg><svg x="12.612959861755371" y="40" width="47.793601989746094" height="30" style="overflow: visible;"><rect width="47.793601989746094" height="30" id="pos-2" class="pos" attr="upostag" subId="2" rx="5" ry="5" style="fill: rgb(175, 162, 255); stroke: rgb(0, 0, 0); stroke-width: 2px;"/><text x="50%" y="50%" class="pos-label" id="text-pos-2" text-anchor="middle" dominant-baseline="central">ADJ</text></svg></svg><svg id="token-3" width="64.51547813415527" height="70" y="100" style="overflow: visible; cursor: pointer;" x="506.2702232360839"><line x1="32.25773906707764" y1="30" x2="32.25773906707764" y2="40" class="pos-edge" style="stroke: rgb(72, 72, 72); stroke-width: 3;"/><svg x="43.376922607421875" width="21.1385555267334" height="30" style="overflow: visible;"><path d="M0,0h16.1385555267334a5,5 0 0 1 5,5v20a5,5 0 0 1 -5,5h-16.1385555267334z" class="tokenNum" style="fill: rgb(175, 162, 255); stroke: rgb(0, 0, 0); stroke-width: 2px;"/><text class="tokenNum-label" x="50%" y="50%" text-anchor="middle" dominant-baseline="central">4</text></svg><svg width="43.376922607421875" height="30" id="group-3" class="token" subId="3" style="overflow: visible;"><path d="M43.376922607421875,0h-38.376922607421875a5,5 1 0 0 -5,5v20a5,5 1 0 0 5,5h38.376922607421875z" id="form-3" attr="form" subId="3" class="form" num="4" style="fill: rgb(127, 161, 255); stroke: rgb(0, 0, 0); stroke-width: 2px;"/><text x="50%" y="50%" text-anchor="middle" dominant-baseline="central" id="text-form-3" class="form-label">and</text></svg><svg x="-7.184609413146973" y="40" width="78.88469696044922" height="30" style="overflow: visible;"><rect width="78.88469696044922" height="30" id="pos-3" class="pos" attr="upostag" subId="3" rx="5" ry="5" style="fill: rgb(175, 162, 255); stroke: rgb(0, 0, 0); stroke-width: 2px;"/><text x="50%" y="50%" class="pos-label" id="text-pos-3" text-anchor="middle" dominant-baseline="central">CCONJ</text></svg></svg><svg id="token-4" width="71.1404972076416" height="70" y="100" style="overflow: visible; cursor: pointer;" x="623.0529556274414"><line x1="35.5702486038208" y1="30" x2="35.5702486038208" y2="40" class="pos-edge" style="stroke: rgb(72, 72, 72); stroke-width: 3;"/><svg x="50.0019416809082" width="21.1385555267334" height="30" style="overflow: visible;"><path d="M0,0h16.1385555267334a5,5 0 0 1 5,5v20a5,5 0 0 1 -5,5h-16.1385555267334z" class="tokenNum" style="fill: rgb(175, 162, 255); stroke: rgb(0, 0, 0); stroke-width: 2px;"/><text class="tokenNum-label" x="50%" y="50%" text-anchor="middle" dominant-baseline="central">5</text></svg><svg width="50.0019416809082" height="30" id="group-4" class="token" subId="4" style="overflow: visible;"><path d="M50.0019416809082,0h-45.0019416809082a5,5 1 0 0 -5,5v20a5,5 1 0 0 5,5h45.0019416809082z" id="form-4" attr="form" subId="4" class="form" num="5" style="fill: rgb(127, 161, 255); stroke: rgb(0, 0, 0); stroke-width: 2px;"/><text x="50%" y="50%" text-anchor="middle" dominant-baseline="central" id="text-form-4" class="form-label">furry</text></svg><svg x="11.673447608947754" y="40" width="47.793601989746094" height="30" style="overflow: visible;"><rect width="47.793601989746094" height="30" id="pos-4" class="pos" attr="upostag" subId="4" rx="5" ry="5" style="fill: rgb(175, 162, 255); stroke: rgb(0, 0, 0); stroke-width: 2px;"/><text x="50%" y="50%" class="pos-label" id="text-pos-4" text-anchor="middle" dominant-baseline="central">ADJ</text></svg></svg><defs><marker id="end" viewBox="0 -5 10 10" refX="2" refY="2" markerWidth="15" markerHeight="15" orient="auto" style="fill: rgb(17, 17, 17);"><path d="M 1 1 L 3 2 L 1 3 Z"/></marker></defs><path class="dependency" attr="deprel" marker-end="url(#end)" d="M 417.5,100 L 412.25,67.5 C 407,35 399.65,35 392.29999999999995,35 L 392.29999999999995,35 386.875638961792,35M 313.124361038208,35 L 307.70000000000005,35 C300.35,35 293,35 287.75,67.5 L282.5,94" id="dep_1_2" num="6" style="stroke-width: 4px; fill: none; stroke: rgb(17, 17, 17); opacity: 0.766;"/><path class="dependency" attr="deprel" marker-end="url(#end)" d="M 192,100 L 202.5,35 C 213,-30 227.7,-30 242.39999999999998,-30 L 242.39999999999998,-30 281.49572372436523,-30M 343.00427627563477,-30 L 382.1,-30 C396.8,-30 411.5,-30 422,35 L432.5,94" id="dep_2_0" num="7" style="stroke-width: 4px; fill: none; stroke: rgb(17, 17, 17); opacity: 0.766;"/><path class="dependency" attr="deprel" marker-end="url(#end)" d="M 643.5,100 L 638.25,67.5 C 633,35 625.65,35 618.3,35 L 618.3,35 613.164888381958,35M 568.335111618042,35 L 563.2,35 C555.85,35 548.5,35 543.25,67.5 L538,94" id="dep_3_4" num="8" style="stroke-width: 4px; fill: none; stroke: rgb(17, 17, 17); opacity: 0.766;"/><path class="dependency" attr="deprel" marker-end="url(#end)" d="M 192,100 L 207.75,2.5 C 223.5,-95 245.55,-95 267.6,-95 L 267.6,-95 394.49572372436523,-95M 456.00427627563477,-95 L 582.9000000000001,-95 C604.95,-95 627,-95 642.75,2.5 L658.5,94" id="dep_4_0" num="9" style="stroke-width: 4px; fill: none; stroke: rgb(17, 17, 17); opacity: 0.766;"/><line x1="177" y1="-127.5" x2="177" y2="93" class="root-deprel" marker-end="url(#end)" style="stroke: rgb(17, 17, 17); opacity: 0.766; stroke-width: 4px;"/><text id="text-dep_1_2" class="deprel-label" transform="translate(350,35)" y="-1" text-anchor="middle" dominant-baseline="central" style="cursor: pointer; text-shadow: rgb(255, 255, 255) 1px 1px 5px;">⊲punct</text><text id="text-dep_2_0" class="deprel-label" transform="translate(312.25,-30)" y="-1" text-anchor="middle" dominant-baseline="central" style="cursor: pointer; text-shadow: rgb(255, 255, 255) 1px 1px 5px;">conj⊳</text><text id="text-dep_3_4" class="deprel-label" transform="translate(590.75,35)" y="-1" text-anchor="middle" dominant-baseline="central" style="cursor: pointer; text-shadow: rgb(255, 255, 255) 1px 1px 5px;">⊲cc</text><text id="text-dep_4_0" class="deprel-label" transform="translate(425.25,-95)" y="-1" text-anchor="middle" dominant-baseline="central" style="cursor: pointer; text-shadow: rgb(255, 255, 255) 1px 1px 5px;">conj⊳</text><text x="177" y="-138.5" class="root-deprel-label" text-anchor="middle" dominant-baseline="central" style="text-shadow: rgb(255, 255, 255) 1px 1px 5px;">ROOT</text></g></svg>